<svg width="355" height="325" viewBox="0 0 355 325" fill="none" xmlns="http://www.w3.org/2000/svg">
<mask id="path-1-inside-1_37_4095" fill="white">
<path d="M0 40C0 21.1438 0 11.7157 5.85786 5.85786C11.7157 0 21.1438 0 40 0H315C333.856 0 343.284 0 349.142 5.85786C355 11.7157 355 21.1438 355 40V285C355 303.856 355 313.284 349.142 319.142C343.284 325 333.856 325 315 325H40C21.1438 325 11.7157 325 5.85786 319.142C0 313.284 0 303.856 0 285V40Z"/>
</mask>
<path d="M0 40C0 21.1438 0 11.7157 5.85786 5.85786C11.7157 0 21.1438 0 40 0H315C333.856 0 343.284 0 349.142 5.85786C355 11.7157 355 21.1438 355 40V285C355 303.856 355 313.284 349.142 319.142C343.284 325 333.856 325 315 325H40C21.1438 325 11.7157 325 5.85786 319.142C0 313.284 0 303.856 0 285V40Z" fill="white"/>
<path d="M0 0H355H0ZM355 305C355 318.807 343.807 330 330 330H25C11.1929 330 0 318.807 0 305C0 313.284 8.9543 320 20 320H335C346.046 320 355 313.284 355 305ZM0 325V0V325ZM355 0V325V0Z" fill="#2A9DF6" mask="url(#path-1-inside-1_37_4095)"/>
<mask id="mask0_37_4095" style="mask-type:alpha" maskUnits="userSpaceOnUse" x="0" y="0" width="355" height="325">
<mask id="path-3-inside-2_37_4095" fill="white">
<path d="M0 40C0 21.1438 0 11.7157 5.85786 5.85786C11.7157 0 21.1438 0 40 0H315C333.856 0 343.284 0 349.142 5.85786C355 11.7157 355 21.1438 355 40V285C355 303.856 355 313.284 349.142 319.142C343.284 325 333.856 325 315 325H40C21.1438 325 11.7157 325 5.85786 319.142C0 313.284 0 303.856 0 285V40Z"/>
</mask>
<path d="M0 40C0 21.1438 0 11.7157 5.85786 5.85786C11.7157 0 21.1438 0 40 0H315C333.856 0 343.284 0 349.142 5.85786C355 11.7157 355 21.1438 355 40V285C355 303.856 355 313.284 349.142 319.142C343.284 325 333.856 325 315 325H40C21.1438 325 11.7157 325 5.85786 319.142C0 313.284 0 303.856 0 285V40Z" fill="white"/>
<path d="M0 0H355H0ZM355 325H0H355ZM0 325V0V325ZM335 0C348.807 0 360 11.1929 360 25V300C360 313.807 348.807 325 335 325C343.284 325 350 316.046 350 305V20C350 8.9543 343.284 0 335 0Z" fill="#FA9C23" mask="url(#path-3-inside-2_37_4095)"/>
</mask>
<g mask="url(#mask0_37_4095)">
<circle cx="364" cy="20" r="68" transform="rotate(-90 364 20)" fill="url(#paint0_linear_37_4095)" fill-opacity="0.09"/>
<g filter="url(#filter0_f_37_4095)">
<path d="M326 -75.5C356.652 -75.5 381.5 -50.6518 381.5 -20C381.5 10.6518 356.652 35.5 326 35.5C295.348 35.5 270.5 10.6518 270.5 -20C270.5 -50.6518 295.348 -75.5 326 -75.5Z" stroke="#2B9EF6" stroke-opacity="0.2"/>
</g>
<path d="M365.695 304.318C329.327 294.219 289.583 296.887 257.633 303.888C228.665 310.23 194.32 315.441 159.482 308.353C118.171 300.019 92.2032 271.493 74.102 249.249C58.6974 230.29 31.8122 205.329 -5.64126 200.497C-21.2027 198.52 -34.6718 203.256 -46.4811 207.728L-31.2535 371.205L388.928 332.066L387.104 312.494C380.279 309.214 373.223 306.391 365.695 304.318Z" fill="url(#paint1_linear_37_4095)" fill-opacity="0.09"/>
<path d="M117.738 198.346V188.094H119.894V198.214C119.894 200.766 121.302 202.174 123.832 202.174C126.34 202.174 127.726 200.744 127.726 198.214V188.094H129.904V198.346C129.904 201.998 127.572 204.264 123.832 204.264C120.07 204.264 117.738 202.02 117.738 198.346ZM132.171 200.876H134.151C134.151 201.976 134.987 202.636 136.351 202.636C137.803 202.636 138.639 202.042 138.639 201.052C138.639 200.326 138.287 199.886 137.165 199.6L135.273 199.16C133.359 198.698 132.457 197.752 132.457 196.168C132.457 194.188 134.129 192.934 136.505 192.934C138.859 192.934 140.399 194.254 140.443 196.3H138.463C138.419 195.222 137.693 194.54 136.439 194.54C135.141 194.54 134.415 195.112 134.415 196.102C134.415 196.828 134.943 197.312 135.999 197.576L137.891 198.038C139.717 198.478 140.619 199.314 140.619 200.92C140.619 202.966 138.859 204.264 136.307 204.264C133.777 204.264 132.171 202.922 132.171 200.876ZM147.554 204.264C144.386 204.264 142.208 201.976 142.208 198.632C142.208 195.266 144.342 192.934 147.466 192.934C150.524 192.934 152.526 195.046 152.526 198.236V199.006L144.21 199.028C144.364 201.294 145.552 202.548 147.598 202.548C149.204 202.548 150.26 201.888 150.612 200.656H152.548C152.02 202.966 150.216 204.264 147.554 204.264ZM147.466 194.672C145.662 194.672 144.518 195.75 144.254 197.642H150.458C150.458 195.86 149.292 194.672 147.466 194.672ZM160.996 193.154V195.046H160.072C158.114 195.046 156.904 196.234 156.904 198.302V204H154.836V193.264H156.772L156.904 194.892C157.344 193.77 158.422 193.022 159.896 193.022C160.27 193.022 160.578 193.066 160.996 193.154ZM168.247 198.544C168.247 195.244 170.183 192.934 173.263 192.934C174.957 192.934 176.431 193.704 177.135 195.178L177.311 193.242H179.159V208.818H177.113V202.24C176.387 203.56 174.957 204.286 173.241 204.286C170.073 204.286 168.247 201.822 168.247 198.544ZM170.337 198.632C170.337 200.832 171.569 202.416 173.681 202.416C175.793 202.416 177.091 200.832 177.091 198.632C177.091 196.388 175.793 194.826 173.681 194.826C171.569 194.826 170.337 196.41 170.337 198.632ZM189.578 193.242H191.624V204H189.776L189.556 202.372C188.94 203.494 187.51 204.264 185.926 204.264C183.418 204.264 182.01 202.57 182.01 199.93V193.242H184.078V199.248C184.078 201.558 185.068 202.438 186.652 202.438C188.544 202.438 189.578 201.228 189.578 198.918V193.242ZM199.052 204.264C195.884 204.264 193.706 201.976 193.706 198.632C193.706 195.266 195.84 192.934 198.964 192.934C202.022 192.934 204.024 195.046 204.024 198.236V199.006L195.708 199.028C195.862 201.294 197.05 202.548 199.096 202.548C200.702 202.548 201.758 201.888 202.11 200.656H204.046C203.518 202.966 201.714 204.264 199.052 204.264ZM198.964 194.672C197.16 194.672 196.016 195.75 195.752 197.642H201.956C201.956 195.86 200.79 194.672 198.964 194.672ZM212.494 193.154V195.046H211.57C209.612 195.046 208.402 196.234 208.402 198.302V204H206.334V193.264H208.27L208.402 194.892C208.842 193.77 209.92 193.022 211.394 193.022C211.768 193.022 212.076 193.066 212.494 193.154ZM215.446 190.69C214.698 190.69 214.082 190.074 214.082 189.326C214.082 188.556 214.698 187.962 215.446 187.962C216.194 187.962 216.81 188.556 216.81 189.326C216.81 190.074 216.194 190.69 215.446 190.69ZM214.434 204V193.242H216.502V204H214.434ZM224.146 204.264C220.978 204.264 218.8 201.976 218.8 198.632C218.8 195.266 220.934 192.934 224.058 192.934C227.116 192.934 229.118 195.046 229.118 198.236V199.006L220.802 199.028C220.956 201.294 222.144 202.548 224.19 202.548C225.796 202.548 226.852 201.888 227.204 200.656H229.14C228.612 202.966 226.808 204.264 224.146 204.264ZM224.058 194.672C222.254 194.672 221.11 195.75 220.846 197.642H227.05C227.05 195.86 225.884 194.672 224.058 194.672ZM230.548 200.876H232.528C232.528 201.976 233.364 202.636 234.728 202.636C236.18 202.636 237.016 202.042 237.016 201.052C237.016 200.326 236.664 199.886 235.542 199.6L233.65 199.16C231.736 198.698 230.834 197.752 230.834 196.168C230.834 194.188 232.506 192.934 234.882 192.934C237.236 192.934 238.776 194.254 238.82 196.3H236.84C236.796 195.222 236.07 194.54 234.816 194.54C233.518 194.54 232.792 195.112 232.792 196.102C232.792 196.828 233.32 197.312 234.376 197.576L236.268 198.038C238.094 198.478 238.996 199.314 238.996 200.92C238.996 202.966 237.236 204.264 234.684 204.264C232.154 204.264 230.548 202.922 230.548 200.876Z" fill="#9298A4"/>
<path d="M145.06 146.15H140.02V141.8H149.71V164H145.06V146.15ZM153.176 152.96C153.176 146.09 157.076 141.38 162.866 141.38C168.656 141.38 172.556 146.09 172.556 152.96C172.556 159.83 168.956 164.39 162.866 164.39C156.776 164.39 153.176 159.83 153.176 152.96ZM157.976 152.96C157.976 157.73 159.776 160.13 162.866 160.13C165.956 160.13 167.756 157.73 167.756 152.96C167.756 148.04 165.956 145.64 162.866 145.64C159.776 145.64 157.976 148.04 157.976 152.96ZM179.989 164H175.369V149H179.689L179.989 150.56C180.739 149.51 182.209 148.52 184.369 148.52C186.619 148.52 188.059 149.57 188.929 151.16C189.709 149.57 191.479 148.52 193.639 148.52C197.509 148.52 199.429 150.77 199.429 154.19V164H194.809V155.48C194.809 153.59 193.819 152.69 192.349 152.69C191.029 152.69 189.709 153.41 189.709 155.96V164H185.089V155.48C185.089 153.62 184.129 152.72 182.659 152.72C181.339 152.72 179.989 153.44 179.989 155.96V164ZM201.476 159.26H205.856C205.916 160.31 206.696 160.94 208.106 160.94C209.546 160.94 210.206 160.43 210.206 159.65C210.206 159.2 209.966 158.72 208.856 158.48L206.096 157.88C203.336 157.28 201.986 156.08 201.986 153.44C201.986 150.32 204.656 148.52 208.256 148.52C211.736 148.52 214.166 150.56 214.166 153.59H209.786C209.786 152.57 209.156 151.88 208.046 151.88C206.996 151.88 206.336 152.42 206.336 153.23C206.336 153.92 206.906 154.31 207.956 154.55L210.746 155.15C213.206 155.69 214.556 156.83 214.556 159.23C214.556 162.44 211.826 164.39 207.926 164.39C203.966 164.39 201.476 162.29 201.476 159.26Z" fill="#3A3A3A"/>
<rect x="142" y="40" width="72" height="72" rx="36" fill="url(#paint2_linear_37_4095)"/>
<path d="M185.5 61.645H170.5C166 61.645 163 64.645 163 69.145V78.145C163 82.645 166 85.645 170.5 85.645V88.84C170.5 90.04 171.835 90.76 172.825 90.085L179.5 85.645H185.5C190 85.645 193 82.645 193 78.145V69.145C193 64.645 190 61.645 185.5 61.645ZM178 79.9C177.37 79.9 176.875 79.39 176.875 78.775C176.875 78.16 177.37 77.65 178 77.65C178.63 77.65 179.125 78.16 179.125 78.775C179.125 79.39 178.63 79.9 178 79.9ZM179.89 73.675C179.305 74.065 179.125 74.32 179.125 74.74V75.055C179.125 75.67 178.615 76.18 178 76.18C177.385 76.18 176.875 75.67 176.875 75.055V74.74C176.875 73 178.15 72.145 178.63 71.815C179.185 71.44 179.365 71.185 179.365 70.795C179.365 70.045 178.75 69.43 178 69.43C177.25 69.43 176.635 70.045 176.635 70.795C176.635 71.41 176.125 71.92 175.51 71.92C174.895 71.92 174.385 71.41 174.385 70.795C174.385 68.8 176.005 67.18 178 67.18C179.995 67.18 181.615 68.8 181.615 70.795C181.615 72.505 180.355 73.36 179.89 73.675Z" fill="white"/>
</g>
<circle cx="205.5" cy="255.5" r="3.5" fill="#EDF9FE"/>
<g opacity="0.15" filter="url(#filter1_f_37_4095)">
<circle cx="68.5" cy="87.5" r="4" stroke="#218CF4"/>
</g>
<circle cx="317.5" cy="274.5" r="4.5" fill="#EDF9FE"/>
<circle cx="313.5" cy="272.5" r="4" stroke="#218CF4" stroke-dasharray="2 2"/>
<defs>
<filter id="filter0_f_37_4095" x="269" y="-77" width="114" height="114" filterUnits="userSpaceOnUse" color-interpolation-filters="sRGB">
<feFlood flood-opacity="0" result="BackgroundImageFix"/>
<feBlend mode="normal" in="SourceGraphic" in2="BackgroundImageFix" result="shape"/>
<feGaussianBlur stdDeviation="0.5" result="effect1_foregroundBlur_37_4095"/>
</filter>
<filter id="filter1_f_37_4095" x="63" y="82" width="11" height="11" filterUnits="userSpaceOnUse" color-interpolation-filters="sRGB">
<feFlood flood-opacity="0" result="BackgroundImageFix"/>
<feBlend mode="normal" in="SourceGraphic" in2="BackgroundImageFix" result="shape"/>
<feGaussianBlur stdDeviation="0.5" result="effect1_foregroundBlur_37_4095"/>
</filter>
<linearGradient id="paint0_linear_37_4095" x1="309.5" y1="-34.5" x2="308.693" y2="72.7453" gradientUnits="userSpaceOnUse">
<stop stop-color="#2898F6"/>
<stop offset="1" stop-color="white" stop-opacity="0"/>
</linearGradient>
<linearGradient id="paint1_linear_37_4095" x1="89" y1="236.5" x2="8.25663" y2="522.431" gradientUnits="userSpaceOnUse">
<stop stop-color="#3CC1FB"/>
<stop offset="1" stop-color="#187AF2"/>
</linearGradient>
<linearGradient id="paint2_linear_37_4095" x1="138.5" y1="40" x2="198.5" y2="115.5" gradientUnits="userSpaceOnUse">
<stop stop-color="#4BDFFF"/>
<stop offset="1" stop-color="#106AF0"/>
</linearGradient>
</defs>
</svg>
