<svg width="106" height="84" viewBox="0 0 106 84" fill="none" xmlns="http://www.w3.org/2000/svg">
<g filter="url(#filter0_d_37_4072)">
<mask id="path-1-inside-1_37_4072" fill="white">
<path fill-rule="evenodd" clip-rule="evenodd" d="M21.7574 20.7574C20 22.5147 20 25.3431 20 31V42C20 47.6569 20 50.4853 21.7574 52.2426C23.5147 54 26.3431 54 32 54H47.6554L51.2072 60.6881C51.9811 62.1453 52.3681 62.8739 52.9681 62.875C53.5681 62.876 53.9576 62.1488 54.7366 60.6943L58.322 54H74C79.6569 54 82.4853 54 84.2426 52.2426C86 50.4853 86 47.6569 86 42V31C86 25.3431 86 22.5147 84.2426 20.7574C82.4853 19 79.6569 19 74 19H32C26.3431 19 23.5147 19 21.7574 20.7574Z"/>
</mask>
<path fill-rule="evenodd" clip-rule="evenodd" d="M21.7574 20.7574C20 22.5147 20 25.3431 20 31V42C20 47.6569 20 50.4853 21.7574 52.2426C23.5147 54 26.3431 54 32 54H47.6554L51.2072 60.6881C51.9811 62.1453 52.3681 62.8739 52.9681 62.875C53.5681 62.876 53.9576 62.1488 54.7366 60.6943L58.322 54H74C79.6569 54 82.4853 54 84.2426 52.2426C86 50.4853 86 47.6569 86 42V31C86 25.3431 86 22.5147 84.2426 20.7574C82.4853 19 79.6569 19 74 19H32C26.3431 19 23.5147 19 21.7574 20.7574Z" fill="white"/>
<path d="M21.7574 52.2426L21.0503 52.9497H21.0503L21.7574 52.2426ZM47.6554 54L48.5386 53.531L48.2566 53H47.6554V54ZM51.2072 60.6881L50.3241 61.1571L51.2072 60.6881ZM52.9681 62.875L52.9663 63.875H52.9664L52.9681 62.875ZM54.7366 60.6943L55.6182 61.1664H55.6182L54.7366 60.6943ZM58.322 54V53H57.7232L57.4405 53.5279L58.322 54ZM84.2426 52.2426L83.5355 51.5355L84.2426 52.2426ZM84.2426 20.7574L83.5355 21.4645V21.4645L84.2426 20.7574ZM21 31C21 28.1433 21.0021 26.1014 21.2108 24.5496C21.4155 23.0266 21.8026 22.1264 22.4645 21.4645L21.0503 20.0503C19.9548 21.1457 19.4632 22.5383 19.2286 24.2831C18.9979 25.9991 19 28.1998 19 31H21ZM21 42V31H19V42H21ZM22.4645 51.5355C21.8026 50.8736 21.4155 49.9734 21.2108 48.4504C21.0021 46.8986 21 44.8567 21 42H19C19 44.8002 18.9979 47.0009 19.2286 48.7169C19.4632 50.4617 19.9548 51.8543 21.0503 52.9497L22.4645 51.5355ZM32 53C29.1433 53 27.1014 52.9979 25.5496 52.7892C24.0266 52.5845 23.1264 52.1974 22.4645 51.5355L21.0503 52.9497C22.1457 54.0452 23.5383 54.5368 25.2831 54.7714C26.9991 55.0021 29.1998 55 32 55V53ZM47.6554 53H32V55H47.6554V53ZM52.0904 60.219L48.5386 53.531L46.7722 54.469L50.3241 61.1571L52.0904 60.219ZM52.9699 61.875C53.1592 61.8753 53.1717 62.0245 52.958 61.7345C52.7439 61.4438 52.4933 60.9777 52.0904 60.219L50.3241 61.1571C50.6951 61.8557 51.0249 62.4825 51.3478 62.9207C51.6711 63.3596 52.177 63.8736 52.9663 63.875L52.9699 61.875ZM53.8551 60.2221C53.4496 60.9793 53.1973 61.4446 52.9822 61.7345C52.7675 62.0238 52.7805 61.8747 52.9699 61.875L52.9664 63.875C53.7557 63.8764 54.2634 63.3641 54.5883 62.9264C54.9126 62.4893 55.2447 61.8637 55.6182 61.1664L53.8551 60.2221ZM57.4405 53.5279L53.8551 60.2221L55.6182 61.1664L59.2036 54.4721L57.4405 53.5279ZM74 53H58.322V55H74V53ZM83.5355 51.5355C82.8736 52.1974 81.9734 52.5845 80.4504 52.7892C78.8986 52.9979 76.8567 53 74 53V55C76.8002 55 79.0009 55.0021 80.7169 54.7714C82.4617 54.5368 83.8543 54.0452 84.9497 52.9497L83.5355 51.5355ZM85 42C85 44.8567 84.9979 46.8986 84.7892 48.4504C84.5845 49.9734 84.1974 50.8736 83.5355 51.5355L84.9497 52.9497C86.0452 51.8543 86.5368 50.4617 86.7714 48.7169C87.0021 47.0009 87 44.8002 87 42H85ZM85 31V42H87V31H85ZM83.5355 21.4645C84.1974 22.1264 84.5845 23.0266 84.7892 24.5496C84.9979 26.1014 85 28.1433 85 31H87C87 28.1998 87.0021 25.9991 86.7714 24.2831C86.5368 22.5383 86.0452 21.1457 84.9497 20.0503L83.5355 21.4645ZM74 20C76.8567 20 78.8986 20.0021 80.4504 20.2108C81.9734 20.4155 82.8736 20.8026 83.5355 21.4645L84.9497 20.0503C83.8543 18.9548 82.4617 18.4632 80.7169 18.2286C79.0009 17.9979 76.8002 18 74 18V20ZM32 20H74V18H32V20ZM22.4645 21.4645C23.1264 20.8026 24.0266 20.4155 25.5496 20.2108C27.1014 20.0021 29.1433 20 32 20V18C29.1998 18 26.9991 17.9979 25.2831 18.2286C23.5383 18.4632 22.1457 18.9548 21.0503 20.0503L22.4645 21.4645Z" fill="#F1F2F4" mask="url(#path-1-inside-1_37_4072)"/>
</g>
<defs>
<filter id="filter0_d_37_4072" x="0" y="0" width="106" height="83.875" filterUnits="userSpaceOnUse" color-interpolation-filters="sRGB">
<feFlood flood-opacity="0" result="BackgroundImageFix"/>
<feColorMatrix in="SourceAlpha" type="matrix" values="0 0 0 0 0 0 0 0 0 0 0 0 0 0 0 0 0 0 127 0" result="hardAlpha"/>
<feOffset dy="1"/>
<feGaussianBlur stdDeviation="10"/>
<feComposite in2="hardAlpha" operator="out"/>
<feColorMatrix type="matrix" values="0 0 0 0 0 0 0 0 0 0 0 0 0 0 0 0 0 0 0.06 0"/>
<feBlend mode="normal" in2="BackgroundImageFix" result="effect1_dropShadow_37_4072"/>
<feBlend mode="normal" in="SourceGraphic" in2="effect1_dropShadow_37_4072" result="shape"/>
</filter>
</defs>
</svg>
