<svg width="355" height="325" viewBox="0 0 355 325" fill="none" xmlns="http://www.w3.org/2000/svg">
<mask id="path-1-inside-1_37_4113" fill="white">
<path d="M0 40C0 21.1438 0 11.7157 5.85786 5.85786C11.7157 0 21.1438 0 40 0H315C333.856 0 343.284 0 349.142 5.85786C355 11.7157 355 21.1438 355 40V285C355 303.856 355 313.284 349.142 319.142C343.284 325 333.856 325 315 325H40C21.1438 325 11.7157 325 5.85786 319.142C0 313.284 0 303.856 0 285V40Z"/>
</mask>
<path d="M0 40C0 21.1438 0 11.7157 5.85786 5.85786C11.7157 0 21.1438 0 40 0H315C333.856 0 343.284 0 349.142 5.85786C355 11.7157 355 21.1438 355 40V285C355 303.856 355 313.284 349.142 319.142C343.284 325 333.856 325 315 325H40C21.1438 325 11.7157 325 5.85786 319.142C0 313.284 0 303.856 0 285V40Z" fill="white"/>
<path d="M0 0H355H0ZM355 305C355 318.807 343.807 330 330 330H25C11.1929 330 0 318.807 0 305C0 313.284 8.9543 320 20 320H335C346.046 320 355 313.284 355 305ZM0 325V0V325ZM355 0V325V0Z" fill="#FA9C23" mask="url(#path-1-inside-1_37_4113)"/>
<mask id="mask0_37_4113" style="mask-type:alpha" maskUnits="userSpaceOnUse" x="0" y="0" width="355" height="325">
<mask id="path-3-inside-2_37_4113" fill="white">
<path d="M0 40C0 21.1438 0 11.7157 5.85786 5.85786C11.7157 0 21.1438 0 40 0H315C333.856 0 343.284 0 349.142 5.85786C355 11.7157 355 21.1438 355 40V285C355 303.856 355 313.284 349.142 319.142C343.284 325 333.856 325 315 325H40C21.1438 325 11.7157 325 5.85786 319.142C0 313.284 0 303.856 0 285V40Z"/>
</mask>
<path d="M0 40C0 21.1438 0 11.7157 5.85786 5.85786C11.7157 0 21.1438 0 40 0H315C333.856 0 343.284 0 349.142 5.85786C355 11.7157 355 21.1438 355 40V285C355 303.856 355 313.284 349.142 319.142C343.284 325 333.856 325 315 325H40C21.1438 325 11.7157 325 5.85786 319.142C0 313.284 0 303.856 0 285V40Z" fill="white"/>
<path d="M0 0H355H0ZM355 325H0H355ZM0 325V0V325ZM335 0C348.807 0 360 11.1929 360 25V300C360 313.807 348.807 325 335 325C343.284 325 350 316.046 350 305V20C350 8.9543 343.284 0 335 0Z" fill="#FA9C23" mask="url(#path-3-inside-2_37_4113)"/>
</mask>
<g mask="url(#mask0_37_4113)">
<circle cx="364" cy="20" r="68" transform="rotate(-90 364 20)" fill="url(#paint0_linear_37_4113)" fill-opacity="0.09"/>
<g filter="url(#filter0_f_37_4113)">
<path d="M326 -75.5C356.652 -75.5 381.5 -50.6518 381.5 -20C381.5 10.6518 356.652 35.5 326 35.5C295.348 35.5 270.5 10.6518 270.5 -20C270.5 -50.6518 295.348 -75.5 326 -75.5Z" stroke="#FA9C25" stroke-opacity="0.1"/>
</g>
<path d="M365.695 304.318C329.327 294.219 289.583 296.887 257.633 303.888C228.665 310.23 194.32 315.441 159.482 308.353C118.171 300.019 92.2032 271.493 74.102 249.249C58.6974 230.29 31.8122 205.329 -5.64125 200.497C-21.2027 198.52 -34.6718 203.256 -46.481 207.728L-31.2535 371.205L388.928 332.066L387.105 312.494C380.279 309.214 373.223 306.391 365.695 304.318Z" fill="url(#paint1_linear_37_4113)" fill-opacity="0.09"/>
</g>
<path d="M102.192 204H96.9339V188.094H102.104C106.856 188.094 110.068 191.306 110.068 196.058C110.068 200.788 106.9 204 102.192 204ZM101.95 190.074H99.0899V201.998H102.038C105.58 201.998 107.824 199.71 107.824 196.058C107.824 192.362 105.58 190.074 101.95 190.074ZM119.895 193.242H121.941V204H120.093L119.873 202.372C119.257 203.494 117.827 204.264 116.243 204.264C113.735 204.264 112.327 202.57 112.327 199.93V193.242H114.395V199.248C114.395 201.558 115.385 202.438 116.969 202.438C118.861 202.438 119.895 201.228 119.895 198.918V193.242ZM131.101 193.154V195.046H130.177C128.219 195.046 127.009 196.234 127.009 198.302V204H124.941V193.264H126.877L127.009 194.892C127.449 193.77 128.527 193.022 130.001 193.022C130.375 193.022 130.683 193.066 131.101 193.154ZM135.757 204.264C133.447 204.264 132.083 202.966 132.083 201.008C132.083 199.028 133.557 197.796 136.087 197.598L139.475 197.334V197.026C139.475 195.222 138.397 194.584 136.945 194.584C135.207 194.584 134.217 195.354 134.217 196.652H132.413C132.413 194.408 134.261 192.934 137.033 192.934C139.695 192.934 141.499 194.342 141.499 197.246V204H139.739L139.519 202.262C138.969 203.494 137.495 204.264 135.757 204.264ZM136.351 202.658C138.309 202.658 139.497 201.382 139.497 199.358V198.786L136.747 199.006C134.921 199.182 134.173 199.886 134.173 200.942C134.173 202.086 135.009 202.658 136.351 202.658ZM147.227 204H145.159V194.98H143.047V193.242H145.159V189.876H147.227V193.242H149.339V194.98H147.227V204ZM152.207 190.69C151.459 190.69 150.843 190.074 150.843 189.326C150.843 188.556 151.459 187.962 152.207 187.962C152.955 187.962 153.571 188.556 153.571 189.326C153.571 190.074 152.955 190.69 152.207 190.69ZM151.195 204V193.242H153.263V204H151.195ZM155.562 198.61C155.562 195.288 157.938 192.956 161.172 192.956C164.384 192.956 166.76 195.288 166.76 198.61C166.76 201.932 164.384 204.264 161.172 204.264C157.938 204.264 155.562 201.932 155.562 198.61ZM157.652 198.61C157.652 200.854 159.082 202.416 161.172 202.416C163.24 202.416 164.692 200.854 164.692 198.61C164.692 196.366 163.24 194.804 161.172 194.804C159.082 194.804 157.652 196.366 157.652 198.61ZM171.117 204H169.049V193.242H170.919L171.139 194.892C171.821 193.66 173.185 192.934 174.703 192.934C177.541 192.934 178.839 194.672 178.839 197.422V204H176.771V197.884C176.771 195.706 175.759 194.826 174.175 194.826C172.239 194.826 171.117 196.212 171.117 198.302V204ZM187.015 198.61C187.015 195.288 189.391 192.956 192.625 192.956C195.837 192.956 198.213 195.288 198.213 198.61C198.213 201.932 195.837 204.264 192.625 204.264C189.391 204.264 187.015 201.932 187.015 198.61ZM189.105 198.61C189.105 200.854 190.535 202.416 192.625 202.416C194.693 202.416 196.145 200.854 196.145 198.61C196.145 196.366 194.693 194.804 192.625 194.804C190.535 194.804 189.105 196.366 189.105 198.61ZM199.293 193.242H200.877V191.526C200.877 188.886 202.329 187.808 204.287 187.808C204.683 187.808 205.145 187.83 205.563 187.896V189.678H204.639C203.297 189.678 202.945 190.36 202.945 191.526V193.242H205.497V194.98H202.945V204H200.877V194.98H199.293V193.242ZM218.077 204.264C214.909 204.264 212.731 201.976 212.731 198.632C212.731 195.266 214.865 192.934 217.989 192.934C221.047 192.934 223.049 195.046 223.049 198.236V199.006L214.733 199.028C214.887 201.294 216.075 202.548 218.121 202.548C219.727 202.548 220.783 201.888 221.135 200.656H223.071C222.543 202.966 220.739 204.264 218.077 204.264ZM217.989 194.672C216.185 194.672 215.041 195.75 214.777 197.642H220.981C220.981 195.86 219.815 194.672 217.989 194.672ZM228.398 204.264C226.088 204.264 224.724 202.966 224.724 201.008C224.724 199.028 226.198 197.796 228.728 197.598L232.116 197.334V197.026C232.116 195.222 231.038 194.584 229.586 194.584C227.848 194.584 226.858 195.354 226.858 196.652H225.054C225.054 194.408 226.902 192.934 229.674 192.934C232.336 192.934 234.14 194.342 234.14 197.246V204H232.38L232.16 202.262C231.61 203.494 230.136 204.264 228.398 204.264ZM228.992 202.658C230.95 202.658 232.138 201.382 232.138 199.358V198.786L229.388 199.006C227.562 199.182 226.814 199.886 226.814 200.942C226.814 202.086 227.65 202.658 228.992 202.658ZM236.3 198.632C236.3 195.266 238.434 192.934 241.58 192.934C244.286 192.934 246.178 194.474 246.552 196.872H244.484C244.132 195.508 243.032 194.782 241.646 194.782C239.688 194.782 238.346 196.278 238.346 198.61C238.346 200.92 239.6 202.416 241.558 202.416C243.032 202.416 244.132 201.646 244.506 200.37H246.574C246.156 202.702 244.154 204.264 241.558 204.264C238.39 204.264 236.3 202.02 236.3 198.632ZM250.824 203.978H248.756V187.808H250.824V194.892C251.506 193.726 252.804 192.934 254.476 192.934C257.226 192.934 258.546 194.672 258.546 197.422V204H256.478V197.884C256.478 195.706 255.444 194.826 253.904 194.826C251.902 194.826 250.824 196.278 250.824 198.126V203.978ZM127.393 220.69C126.645 220.69 126.029 220.074 126.029 219.326C126.029 218.556 126.645 217.962 127.393 217.962C128.141 217.962 128.757 218.556 128.757 219.326C128.757 220.074 128.141 220.69 127.393 220.69ZM126.381 234V223.242H128.449V234H126.381ZM133.519 234H131.451V223.242H133.321L133.541 224.892C134.223 223.66 135.587 222.934 137.105 222.934C139.943 222.934 141.241 224.672 141.241 227.422V234H139.173V227.884C139.173 225.706 138.161 224.826 136.577 224.826C134.641 224.826 133.519 226.212 133.519 228.302V234ZM147.141 234H145.073V224.98H142.961V223.242H145.073V219.876H147.141V223.242H149.253V224.98H147.141V234ZM155.644 234.264C152.476 234.264 150.298 231.976 150.298 228.632C150.298 225.266 152.432 222.934 155.556 222.934C158.614 222.934 160.616 225.046 160.616 228.236V229.006L152.3 229.028C152.454 231.294 153.642 232.548 155.688 232.548C157.294 232.548 158.35 231.888 158.702 230.656H160.638C160.11 232.966 158.306 234.264 155.644 234.264ZM155.556 224.672C153.752 224.672 152.608 225.75 152.344 227.642H158.548C158.548 225.86 157.382 224.672 155.556 224.672ZM169.086 223.154V225.046H168.162C166.204 225.046 164.994 226.234 164.994 228.302V234H162.926V223.264H164.862L164.994 224.892C165.434 223.77 166.512 223.022 167.986 223.022C168.36 223.022 168.668 223.066 169.086 223.154ZM173.742 234.264C171.432 234.264 170.068 232.966 170.068 231.008C170.068 229.028 171.542 227.796 174.072 227.598L177.46 227.334V227.026C177.46 225.222 176.382 224.584 174.93 224.584C173.192 224.584 172.202 225.354 172.202 226.652H170.398C170.398 224.408 172.246 222.934 175.018 222.934C177.68 222.934 179.484 224.342 179.484 227.246V234H177.724L177.504 232.262C176.954 233.494 175.48 234.264 173.742 234.264ZM174.336 232.658C176.294 232.658 177.482 231.382 177.482 229.358V228.786L174.732 229.006C172.906 229.182 172.158 229.886 172.158 230.942C172.158 232.086 172.994 232.658 174.336 232.658ZM181.644 228.632C181.644 225.266 183.778 222.934 186.924 222.934C189.63 222.934 191.522 224.474 191.896 226.872H189.828C189.476 225.508 188.376 224.782 186.99 224.782C185.032 224.782 183.69 226.278 183.69 228.61C183.69 230.92 184.944 232.416 186.902 232.416C188.376 232.416 189.476 231.646 189.85 230.37H191.918C191.5 232.702 189.498 234.264 186.902 234.264C183.734 234.264 181.644 232.02 181.644 228.632ZM197.136 234H195.068V224.98H192.956V223.242H195.068V219.876H197.136V223.242H199.248V224.98H197.136V234ZM202.115 220.69C201.367 220.69 200.751 220.074 200.751 219.326C200.751 218.556 201.367 217.962 202.115 217.962C202.863 217.962 203.479 218.556 203.479 219.326C203.479 220.074 202.863 220.69 202.115 220.69ZM201.103 234V223.242H203.171V234H201.103ZM205.47 228.61C205.47 225.288 207.846 222.956 211.08 222.956C214.292 222.956 216.668 225.288 216.668 228.61C216.668 231.932 214.292 234.264 211.08 234.264C207.846 234.264 205.47 231.932 205.47 228.61ZM207.56 228.61C207.56 230.854 208.99 232.416 211.08 232.416C213.148 232.416 214.6 230.854 214.6 228.61C214.6 226.366 213.148 224.804 211.08 224.804C208.99 224.804 207.56 226.366 207.56 228.61ZM221.025 234H218.957V223.242H220.827L221.047 224.892C221.729 223.66 223.093 222.934 224.611 222.934C227.449 222.934 228.747 224.672 228.747 227.422V234H226.679V227.884C226.679 225.706 225.667 224.826 224.083 224.826C222.147 224.826 221.025 226.212 221.025 228.302V234Z" fill="#9298A4"/>
<path d="M169.128 160.07H166.398V164H161.808V160.07H150.768V155.81L160.338 141.8H166.398V155.81H169.128V160.07ZM155.928 155.81H161.808V147.17L155.928 155.81ZM170.965 152.96C170.965 146.09 174.865 141.38 180.655 141.38C186.445 141.38 190.345 146.09 190.345 152.96C190.345 159.83 186.745 164.39 180.655 164.39C174.565 164.39 170.965 159.83 170.965 152.96ZM175.765 152.96C175.765 157.73 177.565 160.13 180.655 160.13C183.745 160.13 185.545 157.73 185.545 152.96C185.545 148.04 183.745 145.64 180.655 145.64C177.565 145.64 175.765 148.04 175.765 152.96ZM192.078 159.26H196.458C196.518 160.31 197.298 160.94 198.708 160.94C200.148 160.94 200.808 160.43 200.808 159.65C200.808 159.2 200.568 158.72 199.458 158.48L196.698 157.88C193.938 157.28 192.588 156.08 192.588 153.44C192.588 150.32 195.258 148.52 198.858 148.52C202.338 148.52 204.768 150.56 204.768 153.59H200.388C200.388 152.57 199.758 151.88 198.648 151.88C197.598 151.88 196.938 152.42 196.938 153.23C196.938 153.92 197.508 154.31 198.558 154.55L201.348 155.15C203.808 155.69 205.158 156.83 205.158 159.23C205.158 162.44 202.428 164.39 198.528 164.39C194.568 164.39 192.078 162.29 192.078 159.26Z" fill="#3A3A3A"/>
<rect x="142" y="40" width="72" height="72" rx="36" fill="#F3F5F7"/>
<rect x="142" y="40" width="72" height="72" rx="36" fill="url(#paint2_linear_37_4113)"/>
<path d="M178 60.9998C169.735 60.9998 163 67.7348 163 75.9998C163 84.2648 169.735 90.9998 178 90.9998C186.265 90.9998 193 84.2648 193 75.9998C193 67.7348 186.265 60.9998 178 60.9998ZM184.525 81.3548C184.315 81.7148 183.94 81.9098 183.55 81.9098C183.355 81.9098 183.16 81.8648 182.98 81.7448L178.33 78.9698C177.175 78.2798 176.32 76.7648 176.32 75.4298V69.2798C176.32 68.6648 176.83 68.1548 177.445 68.1548C178.06 68.1548 178.57 68.6648 178.57 69.2798V75.4298C178.57 75.9698 179.02 76.7648 179.485 77.0348L184.135 79.8098C184.675 80.1248 184.855 80.8148 184.525 81.3548Z" fill="white"/>
<circle cx="205.5" cy="255.5" r="3.5" fill="#FA9D25" fill-opacity="0.1"/>
<g opacity="0.15" filter="url(#filter1_f_37_4113)">
<circle cx="68.5" cy="87.5" r="4" stroke="#FA9C25"/>
</g>
<circle cx="317.5" cy="274.5" r="4.5" fill="#FA9D25" fill-opacity="0.1"/>
<circle cx="313.5" cy="272.5" r="4" stroke="#FA9C25" stroke-dasharray="2 2"/>
<defs>
<filter id="filter0_f_37_4113" x="269" y="-77" width="114" height="114" filterUnits="userSpaceOnUse" color-interpolation-filters="sRGB">
<feFlood flood-opacity="0" result="BackgroundImageFix"/>
<feBlend mode="normal" in="SourceGraphic" in2="BackgroundImageFix" result="shape"/>
<feGaussianBlur stdDeviation="0.5" result="effect1_foregroundBlur_37_4113"/>
</filter>
<filter id="filter1_f_37_4113" x="63" y="82" width="11" height="11" filterUnits="userSpaceOnUse" color-interpolation-filters="sRGB">
<feFlood flood-opacity="0" result="BackgroundImageFix"/>
<feBlend mode="normal" in="SourceGraphic" in2="BackgroundImageFix" result="shape"/>
<feGaussianBlur stdDeviation="0.5" result="effect1_foregroundBlur_37_4113"/>
</filter>
<linearGradient id="paint0_linear_37_4113" x1="361.51" y1="-74.5" x2="432.083" y2="87.964" gradientUnits="userSpaceOnUse">
<stop stop-color="#FD7F2E"/>
<stop offset="1" stop-color="white" stop-opacity="0"/>
</linearGradient>
<linearGradient id="paint1_linear_37_4113" x1="165.293" y1="289.547" x2="171.156" y2="352.351" gradientUnits="userSpaceOnUse">
<stop stop-color="#FD7F2E"/>
<stop offset="1" stop-color="white" stop-opacity="0"/>
</linearGradient>
<linearGradient id="paint2_linear_37_4113" x1="132.357" y1="42.5714" x2="219.143" y2="122.929" gradientUnits="userSpaceOnUse">
<stop stop-color="#F8B11B"/>
<stop offset="1" stop-color="#FF6A37"/>
</linearGradient>
</defs>
</svg>
